<?xml version="1.0" encoding="utf-8" ?>
<svg baseProfile="full" height="1024" version="1.1" width="1024" xmlns="http://www.w3.org/2000/svg" xmlns:ev="http://www.w3.org/2001/xml-events" xmlns:xlink="http://www.w3.org/1999/xlink"><defs /><polygon fill="black" points="404,237 403,238 400,238 399,239 397,239 396,240 395,240 394,241 393,241 391,243 390,243 383,250 383,251 380,254 380,255 379,256 379,257 377,259 377,260 375,262 375,263 373,265 373,266 371,268 371,269 370,270 370,271 368,273 368,274 367,275 367,276 365,278 365,279 363,281 363,282 361,284 361,285 360,286 360,287 358,289 358,290 356,292 356,293 354,295 354,296 353,297 353,298 351,300 351,301 349,303 349,304 347,306 347,307 346,308 346,309 344,311 344,312 343,313 343,314 341,316 341,317 339,319 339,320 337,322 337,323 336,324 336,325 334,327 334,328 332,330 332,331 331,332 331,333 329,335 329,336 327,338 327,339 326,340 326,341 324,343 324,344 322,346 322,347 320,349 320,350 319,351 319,352 317,354 317,355 315,357 315,358 314,359 314,360 312,362 312,363 311,364 311,365 309,367 309,369 308,370 308,371 307,372 307,373 306,374 306,376 305,377 305,379 304,380 304,383 303,384 303,389 302,390 302,406 303,407 302,408 303,409 303,413 304,414 304,418 305,419 305,421 306,422 306,424 307,425 307,426 308,427 308,429 309,430 309,431 310,432 310,433 311,434 311,435 313,437 313,438 314,439 314,440 316,442 316,443 319,446 319,447 324,452 324,453 329,458 330,458 335,463 336,463 338,465 339,465 342,468 343,468 344,469 345,469 346,470 347,470 349,472 351,472 353,474 354,474 355,475 356,475 357,476 358,476 359,477 360,477 361,478 362,478 363,479 364,479 365,480 366,480 368,482 369,482 370,483 371,483 372,484 373,484 374,485 375,485 376,486 377,486 378,487 379,487 380,488 381,488 383,490 384,490 385,491 386,491 387,492 388,492 389,493 390,493 391,494 392,494 393,495 394,495 395,496 396,496 398,498 399,498 400,499 401,499 402,500 403,500 404,501 405,501 406,502 407,502 408,503 409,503 410,504 411,504 413,506 414,506 415,507 416,507 417,508 418,508 419,509 420,509 421,510 422,510 423,511 424,511 425,512 426,512 428,514 429,514 430,515 431,515 432,516 433,516 434,517 435,517 436,518 437,518 438,519 439,519 440,520 441,520 443,522 445,522 447,524 448,524 449,525 450,525 451,526 452,526 453,527 454,527 455,528 456,528 457,529 458,529 459,530 460,530 462,532 463,532 464,533 465,533 466,534 467,534 468,535 469,535 470,536 471,536 472,537 473,537 474,538 475,538 477,540 479,540 481,542 482,542 483,543 484,543 485,544 486,544 487,545 488,545 489,546 490,546 491,547 492,547 494,549 495,549 496,550 497,550 498,551 499,551 500,552 501,552 502,553 503,553 504,554 505,554 506,555 507,555 508,556 509,556 510,557 511,557 512,558 513,558 515,560 516,560 517,561 518,561 519,562 520,562 521,563 522,563 524,565 525,565 527,567 528,567 529,568 529,569 530,570 531,570 536,575 535,576 534,576 532,574 530,574 529,573 300,573 299,574 296,574 295,575 294,575 293,576 292,576 287,581 287,582 285,584 285,585 284,586 284,587 283,588 283,589 282,590 282,591 281,592 281,593 280,594 280,595 278,597 278,598 277,599 277,600 276,601 276,602 275,603 275,604 274,605 274,606 273,607 273,608 271,610 271,611 270,612 270,613 269,614 269,615 267,617 267,618 266,619 266,620 265,621 265,622 264,623 264,624 262,626 262,627 261,628 261,629 260,630 260,631 259,632 259,633 257,635 257,636 256,637 256,638 255,639 255,640 254,641 254,642 252,644 252,645 251,646 251,647 250,648 250,649 249,650 249,651 247,653 247,654 246,655 246,656 245,657 245,658 244,659 244,660 242,662 242,663 241,664 241,665 240,666 240,667 238,669 238,670 237,671 237,672 236,673 236,674 235,675 235,676 233,678 233,679 232,680 232,681 231,682 231,683 230,684 230,685 228,687 228,688 227,689 227,690 226,691 226,692 224,694 224,695 223,696 223,697 222,698 222,699 221,700 221,701 219,703 219,704 218,705 218,706 217,707 217,708 216,709 216,710 214,712 214,713 213,714 213,715 212,716 212,717 210,719 210,720 209,721 209,722 208,723 208,724 207,725 207,726 206,727 206,728 205,729 205,730 204,731 204,733 203,734 203,740 207,744 208,744 209,745 210,745 211,746 334,746 335,745 336,746 337,745 339,745 340,744 341,744 342,743 343,743 344,742 345,742 347,740 348,740 354,734 354,733 356,731 356,730 358,728 358,727 359,726 359,725 361,723 361,722 362,721 362,720 364,718 364,717 365,716 365,715 367,713 367,712 368,711 368,710 370,708 370,707 371,706 371,705 373,703 373,702 375,700 375,699 376,698 376,697 386,687 387,687 388,686 389,686 390,685 392,685 393,684 602,684 603,685 606,685 607,686 608,686 609,687 610,687 611,688 611,689 614,692 614,693 615,694 615,695 617,697 617,698 619,700 619,701 622,704 622,705 624,707 624,708 626,710 626,711 627,712 627,713 629,715 629,716 631,718 631,719 633,721 633,722 635,724 635,725 637,727 637,728 640,731 640,732 643,735 643,736 647,740 648,740 651,743 652,743 653,744 655,744 656,745 658,745 659,746 789,746 790,745 791,745 792,744 793,744 797,740 797,733 796,732 796,731 795,730 795,729 794,728 794,727 793,726 793,725 792,724 792,723 790,721 790,720 789,719 789,718 788,717 788,716 787,715 787,714 785,712 785,711 784,710 784,709 783,708 783,707 782,706 782,705 780,703 780,702 779,701 779,700 778,699 778,698 777,697 777,696 775,694 775,693 774,692 774,691 773,690 773,689 772,688 772,687 770,685 770,684 769,683 769,682 768,681 768,680 767,679 767,678 766,677 766,676 764,674 764,673 763,672 763,671 762,670 762,669 760,667 760,666 759,665 759,664 758,663 758,662 757,661 757,660 756,659 756,658 755,657 755,656 753,654 753,653 752,652 752,651 751,650 751,649 749,647 749,646 748,645 748,644 747,643 747,642 746,641 746,640 744,638 744,637 743,636 743,635 742,634 742,633 741,632 741,631 739,629 739,628 738,627 738,626 737,625 737,624 736,623 736,622 735,621 735,620 733,618 733,617 732,616 732,615 731,614 731,613 729,611 729,610 728,609 728,608 727,607 727,606 726,605 726,604 725,603 725,602 723,600 723,599 722,598 722,597 721,596 721,595 720,594 720,593 718,591 718,590 717,589 717,588 716,587 716,586 715,585 715,584 714,583 714,582 712,580 712,579 711,578 711,577 710,576 710,575 709,574 709,573 707,571 707,570 706,569 706,568 705,567 705,566 704,565 704,564 702,562 702,561 701,560 701,559 700,558 700,557 699,556 699,555 698,554 698,553 696,551 696,550 695,549 695,548 694,547 694,546 693,545 693,544 692,543 692,542 690,540 690,539 689,538 689,537 688,536 688,535 686,533 686,531 684,529 684,528 683,527 683,526 682,525 682,524 681,523 681,522 680,521 680,520 678,518 678,517 677,516 677,515 676,514 676,513 675,512 675,511 674,510 674,509 673,508 673,507 672,506 672,505 670,503 670,502 669,501 669,500 668,499 668,498 667,497 667,496 664,493 664,492 660,488 659,488 656,485 655,485 654,484 653,484 652,483 651,483 650,482 649,482 648,481 647,481 646,480 645,480 644,479 643,479 642,478 641,478 640,477 639,477 638,476 637,476 636,475 635,475 634,474 633,474 631,472 629,472 627,470 626,470 625,469 623,469 621,467 620,467 619,466 618,466 617,465 616,465 615,464 614,464 613,463 612,463 611,462 610,462 609,461 608,461 607,460 606,460 605,459 604,459 603,458 602,458 601,457 600,457 599,456 598,456 597,455 596,455 595,454 594,454 593,453 592,453 591,452 590,452 588,450 587,450 586,449 585,449 584,448 583,448 582,447 581,447 580,446 579,446 578,445 577,445 576,444 575,444 574,443 573,443 572,442 571,442 570,441 569,441 568,440 567,440 565,438 563,438 561,436 560,436 559,435 558,435 557,434 556,434 555,433 554,433 553,432 552,432 551,431 550,431 549,430 548,430 547,429 546,429 545,428 544,428 543,427 542,427 541,426 540,426 539,425 538,425 537,424 536,424 535,423 534,423 533,422 532,422 531,421 530,421 529,420 528,420 527,419 526,419 524,417 523,417 522,416 520,416 518,414 517,414 516,413 515,413 514,412 513,412 512,411 511,411 510,410 509,410 508,409 507,409 506,408 505,408 504,407 503,407 502,406 501,406 500,405 499,405 498,404 497,404 496,403 495,403 494,402 493,402 492,401 491,401 489,399 487,399 485,397 484,397 483,396 482,396 481,395 480,395 479,394 478,394 477,393 476,393 475,392 474,392 473,391 472,391 471,390 470,390 469,389 468,389 467,388 466,388 464,386 463,386 458,381 458,380 457,379 457,374 459,372 459,371 462,368 462,367 466,363 466,362 475,353 476,353 477,352 479,352 480,351 482,351 483,350 544,350 545,351 547,351 548,352 550,352 552,354 553,354 558,359 558,360 560,362 560,363 562,365 562,366 563,367 563,368 565,370 565,371 567,373 567,374 569,376 569,377 570,378 570,379 572,381 572,382 574,384 574,385 576,387 576,388 580,392 581,392 582,393 584,393 585,394 714,394 715,393 717,393 720,390 720,389 721,388 721,383 719,381 719,380 718,379 718,378 716,376 716,375 715,374 715,373 713,371 713,370 711,368 711,367 709,365 709,364 708,363 708,362 706,360 706,359 705,358 705,357 703,355 703,354 702,353 702,352 700,350 700,349 698,347 698,346 697,345 697,344 695,342 695,341 693,339 693,338 692,337 692,336 690,334 690,333 688,331 688,330 687,329 687,328 685,326 685,325 684,324 684,323 682,321 682,320 680,318 680,317 679,316 679,315 677,313 677,312 675,310 675,309 674,308 674,307 672,305 672,304 670,302 670,301 669,300 669,299 667,297 667,296 665,294 665,293 664,292 664,291 662,289 662,288 661,287 661,286 659,284 659,283 657,281 657,280 656,279 656,278 654,276 654,275 652,273 652,272 651,271 651,270 649,268 649,267 648,266 648,265 646,263 646,262 644,260 644,259 643,258 643,257 641,255 641,254 640,253 640,252 630,242 629,242 628,241 627,241 626,240 625,240 624,239 623,239 622,238 618,238 617,237" /></svg>